<svg xmlns="http://www.w3.org/2000/svg" width="158" height="69" viewBox="0 0 158 69">
  <g id="Polygon_1" data-name="Polygon 1" transform="translate(158 69) rotate(180)" fill="#343640">
    <path d="M 110.0285873413086 61.5 L 47.97141265869141 61.5 C 41.22104263305664 61.5 38.74021911621094 56.28656387329102 38.14067459106445 54.68871688842773 C 37.54110717773438 53.09086608886719 35.98004531860352 47.53234481811523 41.0641975402832 43.09175872802734 L 72.09278106689453 15.99084568023682 C 74.00632476806641 14.31951999664307 76.4593505859375 13.39908504486084 79 13.39908504486084 C 81.54063415527344 13.39908504486084 83.99367523193359 14.31951999664307 85.90721893310547 15.99084568023682 L 116.9357833862305 43.09175872802734 C 122.0199356079102 47.53234481811523 120.458869934082 53.09086608886719 119.8593292236328 54.68871688842773 C 119.2597808837891 56.28658676147461 116.7789535522461 61.5 110.0285873413086 61.5 Z" stroke="none"/>
    <path d="M 79 20.89907073974609 C 78.48647308349609 20.89907073974609 77.72723388671875 21.02754211425781 77.02649688720703 21.63957214355469 L 45.99790954589844 48.74048233032227 C 45.61070251464844 49.07868957519531 44.43241119384766 50.10783386230469 45.16262054443359 52.05392456054688 C 45.89285278320312 54.0000114440918 47.45732116699219 54.0000114440918 47.97141265869141 54.0000114440918 L 110.0285873413086 54.0000114440918 C 110.5426788330078 54.0000114440918 112.1071472167969 54.0000114440918 112.8373870849609 52.05392456054688 C 113.5675888061523 50.10783386230469 112.3892669677734 49.07868957519531 112.0020599365234 48.74048233032227 L 80.97352600097656 21.63959884643555 C 80.27276611328125 21.02754211425781 79.51352691650391 20.89907073974609 79 20.89907073974609 M 79 5.899070739746094 C 83.22483062744141 5.899070739746094 87.44966125488281 7.380073547363281 90.8409423828125 10.34207153320312 L 121.869499206543 37.4429817199707 C 134.3935852050781 48.38174819946289 126.6571197509766 69.00001525878906 110.0285873413086 69.00001525878906 L 47.97141265869141 69.00001525878906 C 31.34288024902344 69.00001525878906 23.60641479492188 48.38171768188477 36.13047027587891 37.4429817199707 L 67.1590576171875 10.34207153320312 C 70.55033874511719 7.380073547363281 74.77516937255859 5.899070739746094 79 5.899070739746094 Z" stroke="none" fill="#f5f5f8"/>
  </g>
</svg>
